<?xml version="1.0" standalone="no"?>
<!DOCTYPE svg PUBLIC "-//W3C//DTD SVG 20010904//EN"
 "http://www.w3.org/TR/2001/REC-SVG-20010904/DTD/svg10.dtd">
<svg version="1.0" xmlns="http://www.w3.org/2000/svg"
 width="300.000000pt" height="300.000000pt" viewBox="0 0 300.000000 300.000000"
 preserveAspectRatio="xMidYMid meet">

<g transform="translate(0.000000,300.000000) scale(0.100000,-0.100000)"
fill="#fff" stroke="none">
<path d="M1352 2989 c-243 -23 -480 -109 -693 -250 -129 -86 -315 -273 -402
-404 -241 -365 -314 -789 -207 -1211 141 -558 596 -984 1175 -1101 136 -27
434 -24 572 5 600 129 1047 580 1174 1182 29 139 32 407 6 550 -122 665 -670
1167 -1342 1230 -122 11 -161 11 -283 -1z m603 -838 c28 -12 67 -35 87 -51
l37 -30 68 21 c37 12 85 30 106 40 45 23 46 17 8 -42 -38 -56 -49 -69 -85 -97
l-29 -22 26 0 c14 0 54 9 88 20 35 10 65 17 68 15 2 -3 -32 -41 -76 -84 l-80
-80 -7 -95 c-33 -468 -366 -845 -810 -916 -109 -18 -319 -8 -421 20 -78 21
-255 97 -255 109 0 3 38 7 84 8 46 1 112 9 147 18 68 18 188 72 229 104 27 22
30 20 -55 40 -76 18 -150 72 -195 143 -22 34 -40 65 -40 71 0 5 14 7 33 4 17
-2 50 -2 72 2 l40 7 -62 28 c-109 50 -187 153 -200 267 l-6 51 31 -16 c18 -9
53 -19 78 -23 l47 -6 -45 41 c-87 80 -127 223 -94 333 9 30 19 59 24 66 5 9
31 -10 83 -60 83 -80 151 -129 256 -181 86 -43 224 -84 312 -92 l66 -6 0 83
c1 100 21 154 85 223 79 85 155 118 265 113 44 -3 88 -12 120 -26z"/>
</g>
</svg>
